<svg width="32" height="32" viewBox="0 0 32 32" xmlns="http://www.w3.org/2000/svg">
  <rect x="12" y="10" width="8" height="12" rx="2" fill="#1D9E75" stroke="#0F6E56" stroke-width="0.6"/>
  <rect x="14" y="22" width="4" height="3" rx="0.5" fill="#085041" stroke="#0F6E56" stroke-width="0.5"/>
  <ellipse cx="16" cy="23.5" rx="3" ry="0.8" fill="none" stroke="#5DCAA5" stroke-width="0.5" opacity=".7"/>
  <rect x="1" y="13.5" width="10" height="5" rx="0.4" fill="#185FA5" stroke="#0C447C" stroke-width="0.5"/>
  <line x1="3.5" y1="13.5" x2="3.5" y2="18.5" stroke="#0C447C" stroke-width="0.4"/>
  <line x1="6" y1="13.5" x2="6" y2="18.5" stroke="#0C447C" stroke-width="0.4"/>
  <line x1="8.5" y1="13.5" x2="8.5" y2="18.5" stroke="#0C447C" stroke-width="0.4"/>
  <rect x="21" y="13.5" width="10" height="5" rx="0.4" fill="#185FA5" stroke="#0C447C" stroke-width="0.5"/>
  <line x1="23.5" y1="13.5" x2="23.5" y2="18.5" stroke="#0C447C" stroke-width="0.4"/>
  <line x1="26" y1="13.5" x2="26" y2="18.5" stroke="#0C447C" stroke-width="0.4"/>
  <line x1="28.5" y1="13.5" x2="28.5" y2="18.5" stroke="#0C447C" stroke-width="0.4"/>
  <line x1="16" y1="10" x2="16" y2="7" stroke="#1D9E75" stroke-width="0.7"/>
  <ellipse cx="16" cy="7" rx="2.5" ry="1" fill="none" stroke="#1D9E75" stroke-width="0.6"/>
  <path d="M14 25 Q10 30 8 30" fill="none" stroke="#5DCAA5" stroke-width="0.5" stroke-dasharray="1.5,1" opacity=".6"/>
  <path d="M18 25 Q22 30 24 30" fill="none" stroke="#5DCAA5" stroke-width="0.5" stroke-dasharray="1.5,1" opacity=".6"/>
</svg>
