<svg width="32" height="32" viewBox="0 0 32 32" xmlns="http://www.w3.org/2000/svg">
  <rect x="11" y="13" width="10" height="6" rx="1.5" fill="#888780" stroke="#5F5E5A" stroke-width="0.6"/>
  <rect x="5" y="14" width="6" height="4" rx="1" fill="#6B6A63" stroke="#5F5E5A" stroke-width="0.5"/>
  <rect x="21" y="14" width="6" height="4" rx="1" fill="#6B6A63" stroke="#5F5E5A" stroke-width="0.5"/>
  <rect x="1" y="15.5" width="30" height="1" rx="0.3" fill="#444441" stroke="#2C2C2A" stroke-width="0.3"/>
  <rect x="2" y="9" width="9" height="5.5" rx="0.4" fill="#185FA5" stroke="#0C447C" stroke-width="0.5"/>
  <line x1="4" y1="9" x2="4" y2="14.5" stroke="#0C447C" stroke-width="0.35"/>
  <line x1="6.5" y1="9" x2="6.5" y2="14.5" stroke="#0C447C" stroke-width="0.35"/>
  <line x1="9" y1="9" x2="9" y2="14.5" stroke="#0C447C" stroke-width="0.35"/>
  <rect x="2" y="17.5" width="9" height="5.5" rx="0.4" fill="#185FA5" stroke="#0C447C" stroke-width="0.5"/>
  <line x1="4" y1="17.5" x2="4" y2="23" stroke="#0C447C" stroke-width="0.35"/>
  <line x1="6.5" y1="17.5" x2="6.5" y2="23" stroke="#0C447C" stroke-width="0.35"/>
  <line x1="9" y1="17.5" x2="9" y2="23" stroke="#0C447C" stroke-width="0.35"/>
  <rect x="21" y="9" width="9" height="5.5" rx="0.4" fill="#185FA5" stroke="#0C447C" stroke-width="0.5"/>
  <line x1="23" y1="9" x2="23" y2="14.5" stroke="#0C447C" stroke-width="0.35"/>
  <line x1="25.5" y1="9" x2="25.5" y2="14.5" stroke="#0C447C" stroke-width="0.35"/>
  <line x1="28" y1="9" x2="28" y2="14.5" stroke="#0C447C" stroke-width="0.35"/>
  <rect x="21" y="17.5" width="9" height="5.5" rx="0.4" fill="#185FA5" stroke="#0C447C" stroke-width="0.5"/>
  <line x1="23" y1="17.5" x2="23" y2="23" stroke="#0C447C" stroke-width="0.35"/>
  <line x1="25.5" y1="17.5" x2="25.5" y2="23" stroke="#0C447C" stroke-width="0.35"/>
  <line x1="28" y1="17.5" x2="28" y2="23" stroke="#0C447C" stroke-width="0.35"/>
  <path d="M14.5 13 Q16 10.5 17.5 13" fill="none" stroke="#888780" stroke-width="0.7"/>
  <circle cx="16" cy="12.5" r="0.8" fill="#d4a0ff"/>
</svg>
